<?xml version="1.0" standalone="no"?>
<!DOCTYPE svg PUBLIC "-//W3C//DTD SVG 20010904//EN"
 "http://www.w3.org/TR/2001/REC-SVG-20010904/DTD/svg10.dtd">
<svg version="1.0" xmlns="http://www.w3.org/2000/svg"
 width="400.000000pt" height="350.000000pt" viewBox="0 0 400.000000 350.000000"
 preserveAspectRatio="xMidYMid meet">

<g transform="translate(0.000000,350.000000) scale(0.100000,-0.100000)"
fill="#000000" stroke="none">
<path d="M1055 2840 c-62 -29 -113 -62 -135 -85 -38 -40 -108 -95 -122 -95
-13 0 -10 28 7 60 14 27 14 33 0 61 -16 30 -17 30 -36 13 -16 -14 -19 -31 -19
-101 0 -49 -4 -83 -10 -83 -6 0 -9 -22 -8 -52 6 -131 -3 -648 -11 -648 -14 0
-21 89 -31 415 -10 278 -16 352 -35 398 -11 27 -23 21 -46 -24 -15 -30 -19
-51 -14 -75 4 -22 2 -34 -5 -34 -31 0 -77 -203 -90 -399 -13 -206 -5 -707 14
-822 8 -53 13 -104 10 -115 -7 -25 52 -312 78 -381 46 -125 213 -194 399 -163
175 29 237 50 422 142 271 135 465 272 526 372 12 19 31 37 44 40 21 7 21 7 2
16 -19 8 -19 9 -1 9 11 1 41 19 67 41 45 38 47 39 52 17 3 -12 15 -70 27 -129
12 -58 32 -121 43 -140 32 -49 96 -232 112 -318 22 -112 24 -122 37 -114 7 5
9 35 4 98 -3 50 -9 242 -12 426 l-7 336 29 14 c16 8 32 16 35 18 3 1 7 -62 7
-141 3 -233 30 -564 52 -622 5 -14 15 -25 21 -25 9 0 10 29 4 113 -11 167 -11
166 -23 247 -6 41 -14 157 -18 257 l-6 181 28 15 c22 11 85 16 259 20 162 4
249 10 293 21 62 16 88 14 77 -5 -10 -15 -6 -572 5 -759 12 -207 17 -240 37
-240 12 0 14 16 11 95 -2 60 -7 96 -15 99 -8 3 -12 77 -13 258 0 139 -2 282
-2 318 -1 36 -1 108 0 161 2 91 3 97 24 102 12 4 24 4 27 2 4 -5 25 -261 36
-454 5 -80 3 -106 -7 -112 -11 -7 -10 -11 2 -19 12 -8 13 -11 1 -19 -10 -6
-12 -31 -11 -97 2 -49 2 -102 1 -119 -1 -16 -3 -43 -4 -60 -3 -45 29 -47 37
-2 4 19 13 41 22 48 8 6 14 24 13 38 -1 14 -1 44 -1 65 2 37 3 39 16 20 8 -10
12 -29 9 -42 -3 -12 -2 -39 2 -59 6 -34 8 -36 20 -20 14 20 23 88 31 242 6
140 11 188 23 251 6 28 13 96 17 150 3 55 9 103 11 107 3 5 5 60 4 123 -1 110
0 115 22 123 28 11 34 6 17 -14 -23 -27 13 -18 50 14 45 38 33 54 -29 40 -24
-5 -45 -8 -48 -6 -3 4 -23 727 -23 827 1 52 -22 92 -40 73 -8 -7 -10 -26 -6
-55 17 -110 24 -267 25 -551 1 -269 -1 -308 -14 -314 -9 -3 -18 -4 -20 -2 -2
3 -5 190 -6 417 -1 226 -6 412 -11 412 -4 0 -8 -20 -8 -45 0 -25 -3 -45 -7
-45 -5 0 -8 -167 -8 -371 1 -276 -2 -373 -11 -380 -8 -6 -14 -7 -18 0 -13 21
-38 510 -32 625 4 74 3 123 -3 130 -6 7 -12 43 -14 81 -2 40 -9 71 -15 73 -12
4 -13 -27 -17 -313 0 -33 -2 -187 -3 -342 l-2 -283 -24 0 c-24 0 -24 2 -31
113 -3 61 -5 279 -3 482 l3 370 23 -1 c12 0 22 5 22 13 0 10 -10 13 -32 11
-29 -3 -33 -7 -41 -43 -5 -22 -6 -244 -4 -492 3 -249 2 -455 -2 -458 -24 -14
-304 -35 -472 -35 l-156 0 -6 88 c-3 48 -3 202 0 342 4 140 5 302 4 359 -4
150 8 281 25 281 8 0 14 9 14 21 0 20 -1 20 -30 3 -16 -10 -37 -33 -46 -52
-12 -26 -18 -31 -29 -22 -8 7 -19 9 -24 6 -12 -8 -28 -89 -35 -176 -14 -177
-31 -320 -38 -320 -4 0 -8 15 -8 34 0 19 -4 38 -10 41 -5 3 -10 39 -11 78 -1
84 -9 119 -28 125 -11 4 -13 -7 -8 -57 4 -46 2 -61 -8 -61 -32 0 -33 -24 -20
-370 7 -190 10 -348 7 -351 -4 -4 -22 -10 -41 -14 l-34 -7 7 318 c9 379 8 371
35 503 22 104 56 187 94 229 33 36 -1 26 -38 -11 -36 -36 -61 -105 -98 -267
-19 -85 -21 -133 -25 -442 -2 -261 -6 -348 -15 -348 -7 0 -24 -11 -39 -25 -15
-14 -29 -25 -32 -25 -3 0 -15 18 -26 40 -11 22 -44 69 -73 103 -29 34 -60 74
-69 89 -43 67 -168 119 -322 133 -42 4 -76 10 -76 14 0 3 20 17 46 30 58 31
191 173 217 231 24 53 25 138 3 214 -12 41 -31 70 -81 123 -57 62 -162 138
-220 159 -11 4 -60 38 -108 76 -50 38 -98 68 -110 67 -12 0 -67 -22 -122 -49z
m171 -11 c67 -41 49 -49 -143 -65 -56 -4 -83 -3 -83 4 0 15 137 82 168 82 13
0 40 -9 58 -21z m47 -90 c67 -18 105 -83 57 -96 -29 -8 -25 -17 20 -48 51 -36
52 -60 5 -204 -40 -122 -82 -196 -122 -213 -16 -7 -46 -28 -68 -48 -51 -46
-125 -81 -182 -88 l-44 -5 5 34 c12 73 26 263 32 440 l7 187 91 25 c102 28
144 32 199 16z m1142 -113 c0 -114 -12 -132 -16 -26 -2 54 6 130 15 130 1 0 2
-47 1 -104z m-945 44 c38 -20 127 -106 118 -115 -13 -13 -125 42 -166 81 -66
63 -42 80 48 34z m890 18 c0 -23 -29 -103 -29 -83 -1 36 11 95 20 95 5 0 9 -6
9 -12z m-1710 -34 c0 -31 -23 -28 -28 4 -2 15 2 22 12 22 11 0 16 -9 16 -26z
m250 -36 c-4 -24 -12 -65 -18 -93 -6 -27 -18 -124 -27 -215 -18 -182 -37 -285
-61 -336 -32 -67 -37 -41 -31 154 8 246 47 429 108 506 29 37 37 32 29 -16z
m-236 -73 c3 -27 6 -148 7 -269 1 -120 4 -254 8 -297 7 -78 6 -80 -21 -106
-15 -15 -28 -35 -28 -45 0 -18 2 -18 22 -4 32 23 48 20 48 -9 0 -31 -50 -65
-97 -65 -37 0 -46 24 -13 35 38 12 22 27 -22 20 l-41 -7 6 223 c6 233 17 331
43 381 8 16 17 62 19 104 3 63 7 77 27 93 28 23 33 16 42 -54z m156 68 c-1
-21 -13 -53 -21 -53 -10 0 -12 43 -2 53 9 9 23 9 23 0z m126 -65 c-11 -85 -37
-360 -35 -376 1 -9 1 -52 0 -95 -1 -74 -2 -78 -27 -88 -15 -5 -29 -7 -32 -4
-10 10 60 574 74 597 14 23 25 4 20 -34z m540 -5 c59 -32 94 -62 94 -80 0 -30
-58 -112 -135 -189 -77 -79 -222 -184 -252 -184 -9 0 9 27 43 62 103 112 162
223 185 352 7 36 13 66 14 66 2 0 24 -12 51 -27z m888 -145 c4 -73 7 -256 9
-406 l2 -272 -45 0 -45 0 -1 103 c-1 56 -3 163 -5 237 -2 99 1 154 13 205 9
39 21 108 28 155 14 100 16 110 29 110 5 0 12 -60 15 -132z m-715 38 c33 -106
16 -163 -73 -263 -47 -52 -175 -153 -194 -153 -6 0 -12 10 -14 23 -2 13 -15
28 -35 37 -18 8 -33 18 -33 22 0 4 33 32 74 63 133 100 212 205 230 308 4 20
10 37 15 37 4 0 18 -33 30 -74z m1538 32 c-3 -8 -6 -5 -6 6 -1 11 2 17 5 13 3
-3 4 -12 1 -19z m-970 -145 c9 -38 10 -409 1 -419 -5 -4 -10 -5 -13 -2 -3 2
-8 104 -12 226 -4 163 -3 222 5 222 6 0 15 -12 19 -27z m-887 -269 c21 -24 0
-65 -45 -91 -37 -21 -191 -63 -229 -63 -32 0 -15 25 38 57 30 18 78 51 107 73
58 43 106 52 129 24z m-189 -22 c-13 -9 -53 -40 -90 -69 -78 -63 -117 -71 -51
-11 55 50 129 98 149 97 11 0 9 -5 -8 -17z m-156 -57 c-46 -40 -55 -42 -55
-16 0 25 36 51 70 51 24 -1 23 -2 -15 -35z m-95 -24 c0 -5 -6 -14 -14 -20 -8
-7 -17 -23 -20 -36 -8 -30 -36 -33 -36 -5 0 30 29 70 51 70 11 0 19 -4 19 -9z
m728 -19 c50 -19 142 -85 142 -101 0 -9 -105 4 -160 19 -21 6 -38 6 -44 0 -5
-5 -16 -5 -26 0 -9 5 -65 10 -123 11 -104 2 -107 3 -107 25 0 63 199 91 318
46z m-820 -41 c3 -22 -22 -61 -40 -61 -13 0 -9 78 5 83 20 9 32 2 35 -22z
m2385 -48 c3 -35 1 -63 -4 -63 -5 0 -9 30 -9 67 0 81 5 79 13 -4z m-2329 -40
c-33 -26 -44 -29 -44 -9 0 8 15 27 33 42 29 24 32 25 36 8 2 -11 -8 -27 -25
-41z m246 8 c0 -19 -156 -109 -167 -97 -9 9 25 54 49 67 22 12 94 37 111 38 4
1 7 -3 7 -8z m690 -26 c16 -10 12 -25 -8 -25 -20 0 -62 27 -62 40 0 8 49 -2
70 -15z m-170 -6 c72 -19 99 -33 89 -44 -3 -2 -91 -14 -197 -26 -158 -18 -197
-20 -221 -9 l-31 12 20 25 c15 19 17 30 9 44 -9 18 -4 19 123 19 104 0 150 -5
208 -21z m-830 7 c0 -2 -3 -11 -6 -20 -9 -23 -34 -20 -34 4 0 13 7 20 20 20
11 0 20 -2 20 -4z m450 -14 c0 -21 -32 -53 -75 -75 -25 -13 -81 -16 -127 -8
-34 5 44 54 131 82 71 23 71 23 71 1z m2085 -79 c-10 -172 -15 -240 -35 -433
l-19 -195 5 315 c5 365 8 400 35 400 17 0 18 -7 14 -87z m-2635 29 c0 -23 -6
-30 -32 -37 -39 -12 -67 -49 -75 -99 l-6 -38 46 3 c26 2 48 1 51 -2 7 -6 -13
-357 -23 -406 -6 -29 -5 -44 3 -47 7 -3 6 -8 -3 -14 -12 -9 -13 -18 -1 -66 11
-45 11 -60 0 -86 -8 -18 -17 -27 -22 -22 -5 5 -17 58 -28 118 -10 60 -28 161
-40 224 -11 63 -23 174 -26 245 -2 72 -6 149 -8 172 l-3 41 46 7 c25 4 60 13
76 20 43 19 45 18 45 -13z m154 -1 c-4 -16 -1 -32 5 -35 18 -12 13 -25 -18
-40 -44 -23 -54 3 -27 69 19 44 48 48 40 6z m2407 -106 c-1 -72 -6 -134 -12
-140 -5 -5 -9 44 -9 134 0 100 3 142 11 139 8 -3 11 -46 10 -133z m-1378 98
c31 -33 67 -111 96 -208 23 -80 19 -112 -23 -200 -27 -55 -130 -174 -141 -163
-4 3 12 38 34 78 57 101 71 148 71 245 0 81 -2 88 -45 171 -25 47 -45 90 -45
95 0 18 27 9 53 -18z m1267 -8 c0 -30 -3 -35 -23 -35 -18 0 -22 5 -21 27 1 22
12 34 42 42 1 1 2 -15 2 -34z m51 22 c-1 -4 -1 -14 -1 -22 0 -8 -4 -15 -10
-15 -5 0 -10 12 -10 26 0 14 5 24 11 22 6 -2 10 -7 10 -11z m-129 -32 c4 -31
1 -36 -27 -44 -41 -13 -288 -34 -350 -29 -57 4 -66 1 143 48 79 17 160 38 180
45 51 19 49 19 54 -20z m-2292 -31 c0 -28 -4 -44 -11 -42 -6 2 -10 7 -10 11 1
4 1 23 1 42 0 19 5 35 10 35 6 0 10 -21 10 -46z m1045 -37 c64 -128 61 -223
-16 -394 -34 -77 -102 -153 -191 -214 -32 -22 -58 -43 -58 -48 0 -9 -55 -34
-110 -50 -90 -26 -593 -97 -611 -85 -7 4 -3 114 7 181 4 30 7 32 34 26 40 -7
39 13 0 22 -19 4 -30 13 -30 23 0 33 41 388 49 417 6 23 15 32 47 41 23 7 55
19 72 28 17 9 41 16 53 16 12 0 49 13 83 29 56 27 76 30 236 40 96 7 218 20
270 30 52 10 102 18 110 17 8 -1 33 -36 55 -79z m1015 74 c-8 -5 -44 -14 -80
-21 -36 -6 -107 -22 -158 -36 -52 -13 -111 -24 -133 -24 l-39 0 0 45 0 45 213
0 c127 0 206 -4 197 -9z m-450 -42 c0 -24 -3 -30 -16 -25 -9 3 -27 6 -40 6
-19 0 -24 5 -24 25 0 23 4 25 40 25 38 0 40 -1 40 -31z m-202 -25 c-3 -2 -19
-7 -36 -10 -24 -5 -32 -3 -32 8 0 21 64 39 68 20 2 -7 2 -15 0 -18z m89 14
c-3 -8 -6 -5 -6 6 -1 11 2 17 5 13 3 -3 4 -12 1 -19z m926 -41 c-7 -12 -23 3
-23 22 0 28 14 35 21 9 3 -13 4 -26 2 -31z m-2507 21 c-3 -13 -6 -29 -6 -35 0
-8 -14 -13 -37 -13 l-37 0 34 35 c39 40 55 45 46 13z m430 13 c-3 -5 -18 -12
-33 -16 -15 -3 -39 -15 -54 -26 -28 -20 -139 -28 -139 -10 0 4 9 20 21 35 20
25 25 26 115 26 53 0 93 -4 90 -9z m964 -21 c0 -13 -50 -33 -59 -24 -7 7 28
34 46 34 7 0 13 -5 13 -10z m196 -49 c-2 -57 -16 -63 -16 -8 0 26 4 47 9 47 4
0 8 -18 7 -39z m88 33 c26 -10 18 -29 -19 -47 l-35 -17 0 35 c0 36 15 44 54
29z m-1527 -31 c10 -21 9 -58 -6 -192 -11 -91 -22 -199 -26 -238 -11 -110 -29
-93 -41 37 -6 59 8 289 23 383 7 44 32 50 50 10z m1343 -35 c0 -50 -4 -66 -22
-85 -12 -13 -25 -23 -30 -23 -14 0 -10 158 5 163 40 17 47 9 47 -55z m-100 -5
c1 -27 4 -67 9 -90 7 -38 6 -42 -16 -54 -14 -7 -34 -26 -45 -41 -28 -40 -40
-35 -21 9 11 28 14 59 11 116 -3 54 -2 75 6 67 15 -15 26 -12 26 8 0 10 3 22
7 25 16 16 23 4 23 -40z m200 -108 c0 -25 -4 -45 -10 -45 -5 0 -10 20 -10 45
0 25 5 45 10 45 6 0 10 -20 10 -45z m-100 -67 c0 -35 2 -108 5 -163 l4 -100
-29 115 c-33 130 -37 168 -15 176 8 4 15 12 15 20 0 8 5 14 10 14 6 0 10 -28
10 -62z m70 -222 c11 -87 23 -163 26 -168 3 -4 1 -8 -5 -8 -6 0 -16 19 -22 43
-22 77 -41 312 -24 295 2 -2 13 -75 25 -162z m979 -13 c-1 -63 -2 -65 -10 -28
-11 56 -11 95 1 95 6 0 10 -28 9 -67z m-2459 -213 c0 -65 -3 -90 -12 -90 -10
0 -12 23 -11 87 1 49 2 89 3 91 0 1 5 2 10 2 6 0 10 -37 10 -90z m540 -68 c0
-22 -298 -100 -390 -102 -59 -2 -170 19 -170 31 0 9 46 16 200 30 69 6 170 19
225 28 121 22 135 23 135 13z"/>
<path d="M936 1029 c8 -13 74 -42 81 -36 2 3 -8 14 -23 26 -28 22 -70 29 -58
10z"/>
<path d="M3183 2763 c-14 -5 -18 -43 -5 -43 4 0 12 11 19 25 11 25 9 28 -14
18z"/>
</g>
</svg>
